<?xml version="1.0" encoding="utf-8"?>
<!-- Generator: Adobe Illustrator 16.0.4, SVG Export Plug-In . SVG Version: 6.00 Build 0)  -->
<!DOCTYPE svg PUBLIC "-//W3C//DTD SVG 1.1//EN" "http://www.w3.org/Graphics/SVG/1.1/DTD/svg11.dtd">
<svg version="1.1" id="Layer_1" xmlns="http://www.w3.org/2000/svg" xmlns:xlink="http://www.w3.org/1999/xlink" x="0px" y="0px"
	 width="133.5px" height="133.5px" viewBox="0 0 133.5 133.5" enable-background="new 0 0 133.5 133.5" xml:space="preserve">
<g>
	<circle fill="#0067B4" cx="66.85" cy="67.402" r="66.75"/>
	<g>
		<g>
			<path fill="#FFFFFF" d="M107.458,28.415H30.175c-1.272,0-2.308,1.036-2.308,2.308v9.669c0,0.334,0.075,0.65,0.203,0.937
				c-0.011,0.086-0.026,0.171-0.026,0.26v63.125c0,0.829,0.671,1.5,1.5,1.5s1.5-0.671,1.5-1.5v-3.747h2.82
				c0.592,0,1.072-0.479,1.072-1.071s-0.48-1.071-1.072-1.071h-2.82v-5.715h1.667c0.592,0,1.072-0.48,1.072-1.072
				s-0.48-1.071-1.072-1.071h-1.667V85.25h2.82c0.592,0,1.072-0.48,1.072-1.072s-0.48-1.071-1.072-1.071h-2.82V77.39h1.667
				c0.592,0,1.072-0.48,1.072-1.072s-0.48-1.071-1.072-1.071h-1.667v-5.716h2.82c0.592,0,1.072-0.48,1.072-1.072
				c0-0.591-0.48-1.071-1.072-1.071h-2.82v-5.716h1.667c0.592,0,1.072-0.48,1.072-1.072s-0.48-1.072-1.072-1.072h-1.667v-5.714h2.82
				c0.592,0,1.072-0.48,1.072-1.072s-0.48-1.072-1.072-1.072h-2.82V42.7h9.05v3.452c0,0.645,0.523,1.168,1.168,1.168
				s1.168-0.523,1.168-1.168V42.7h5.522v2.083c0,0.645,0.523,1.168,1.168,1.168s1.168-0.523,1.168-1.168V42.7h5.524v3.452
				c0,0.645,0.523,1.168,1.168,1.168s1.168-0.523,1.168-1.168V42.7h5.523v2.083c0,0.645,0.523,1.168,1.168,1.168
				s1.168-0.523,1.168-1.168V42.7h5.523v3.452c0,0.645,0.522,1.168,1.168,1.168c0.645,0,1.168-0.523,1.168-1.168V42.7h5.523v2.083
				c0,0.645,0.522,1.168,1.168,1.168c0.645,0,1.168-0.523,1.168-1.168V42.7h5.522v3.452c0,0.645,0.522,1.168,1.168,1.168
				s1.168-0.523,1.168-1.168V42.7h17.874c1.272,0,2.309-1.036,2.309-2.308v-9.669C109.766,29.451,108.73,28.415,107.458,28.415z
				 M106.413,39.347H31.22v-7.578h75.192V39.347z"/>
			<circle fill="#FFFFFF" cx="36.034" cy="35.364" r="2.259"/>
			<circle fill="#FFFFFF" cx="43.448" cy="35.364" r="2.259"/>
			<circle fill="#FFFFFF" cx="50.861" cy="35.364" r="2.259"/>
		</g>
		<g>
			<path fill="#FFFFFF" d="M108.088,78.277c0,0-0.428,1.01-1.176,2.779c-0.445,0.852-0.943,1.918-1.605,3.089
				c-0.689,1.153-1.456,2.469-2.447,3.804c-0.461,0.694-0.998,1.373-1.572,2.062c-0.561,0.701-1.146,1.423-1.818,2.104
				c-0.654,0.697-1.311,1.434-2.066,2.097c-0.738,0.683-1.476,1.405-2.311,2.04c-0.814,0.658-1.637,1.342-2.541,1.936
				c-0.444,0.309-0.892,0.619-1.341,0.932c-0.454,0.307-0.938,0.569-1.409,0.857c-0.477,0.283-0.955,0.567-1.434,0.853l-1.499,0.754
				c-0.505,0.245-0.999,0.519-1.517,0.743l-1.562,0.648c-1.033,0.465-2.115,0.797-3.186,1.152c-1.062,0.391-2.167,0.613-3.248,0.9
				c-2.176,0.516-4.361,0.854-6.492,1.027l-0.797,0.078c-0.09,0.007-0.077,0.014-0.252,0.02l-0.19,0.006l-0.38,0.012
				c-0.506,0.017-1.006,0.033-1.5,0.049c-0.969,0.053-2.058-0.039-3.046-0.055c-1.989-0.113-3.831-0.34-5.537-0.644
				c-1.695-0.323-3.25-0.669-4.594-1.088c-1.365-0.362-2.507-0.821-3.465-1.156c-0.953-0.351-1.671-0.7-2.176-0.904
				c-0.5-0.216-0.767-0.331-0.767-0.331l2.264-4.458c0,0,0.229,0.118,0.66,0.34c0.435,0.212,1.052,0.573,1.878,0.944
				c0.833,0.355,1.825,0.846,3.023,1.254c1.18,0.465,2.554,0.871,4.064,1.275c1.513,0.383,3.197,0.712,4.964,0.939
				c0.894,0.072,1.733,0.23,2.746,0.249c0.495,0.019,0.995,0.039,1.501,0.059l0.379,0.015l0.19,0.008
				c-0.048,0.002,0.092-0.002,0.129-0.004l0.737-0.021c1.977-0.02,4.023-0.188,6.081-0.523c1.022-0.195,2.074-0.326,3.09-0.622
				c1.024-0.263,2.065-0.499,3.065-0.868l1.518-0.506c0.503-0.176,0.986-0.401,1.48-0.6l1.473-0.611
				c0.473-0.238,0.945-0.477,1.416-0.713c0.469-0.242,0.949-0.461,1.402-0.721c0.45-0.268,0.898-0.535,1.344-0.799
				c0.908-0.506,1.739-1.105,2.568-1.684c0.85-0.553,1.605-1.197,2.367-1.807c0.779-0.59,1.463-1.256,2.146-1.888
				c0.701-0.616,1.32-1.276,1.915-1.922c0.61-0.633,1.184-1.259,1.681-1.905c1.066-1.24,1.911-2.477,2.674-3.569
				c0.734-1.106,1.299-2.12,1.803-2.937C107.59,79.254,108.088,78.277,108.088,78.277z"/>
			<path fill="#FFFFFF" d="M107.098,67.562c0,0-0.139,0.752-0.383,2.07c-0.107,0.661-0.312,1.448-0.566,2.353
				c-0.123,0.453-0.253,0.936-0.391,1.444c-0.163,0.5-0.363,1.015-0.557,1.56c-0.363,1.099-0.877,2.238-1.424,3.447
				c-0.252,0.615-0.584,1.21-0.91,1.824c-0.334,0.611-0.651,1.252-1.045,1.859c-0.393,0.608-0.793,1.227-1.197,1.854
				c-0.396,0.631-0.885,1.209-1.33,1.826l-0.688,0.916l-0.749,0.875c-0.512,0.576-0.993,1.184-1.534,1.736l-1.658,1.618
				c-0.551,0.538-1.164,1.004-1.737,1.505l-0.868,0.732c-0.305,0.223-0.607,0.444-0.907,0.665c-0.606,0.434-1.188,0.886-1.792,1.286
				c-1.23,0.763-2.4,1.535-3.605,2.096c-0.592,0.299-1.166,0.589-1.723,0.869c-0.575,0.241-1.131,0.475-1.663,0.697
				c-1.05,0.482-2.069,0.781-2.961,1.064c-0.446,0.143-0.862,0.275-1.249,0.398c-0.393,0.094-0.755,0.181-1.082,0.259
				c-1.306,0.3-2.053,0.471-2.053,0.471s0.727-0.239,1.999-0.657c0.317-0.102,0.669-0.214,1.053-0.336
				c0.373-0.15,0.776-0.312,1.208-0.486c0.861-0.348,1.84-0.716,2.859-1.229c0.516-0.243,1.051-0.497,1.605-0.76
				c0.535-0.301,1.088-0.611,1.656-0.931c1.157-0.603,2.264-1.425,3.469-2.173c0.584-0.402,1.148-0.854,1.734-1.287
				c0.292-0.22,0.584-0.441,0.879-0.664l0.839-0.73c0.554-0.498,1.146-0.96,1.677-1.496l1.599-1.603
				c0.537-0.532,1.015-1.12,1.524-1.675l0.746-0.844l0.686-0.887c0.443-0.598,0.932-1.156,1.328-1.77
				c0.405-0.607,0.806-1.208,1.199-1.799c0.398-0.586,0.704-1.217,1.066-1.797c0.348-0.589,0.7-1.159,0.975-1.751
				c0.588-1.163,1.146-2.265,1.552-3.331c0.218-0.525,0.428-1.031,0.627-1.512c0.171-0.489,0.335-0.953,0.487-1.391
				c0.315-0.871,0.578-1.641,0.732-2.293C106.891,68.298,107.098,67.562,107.098,67.562z"/>
			<path fill="#FFFFFF" d="M103.222,52.028c0,0,0.123,0.755,0.339,2.078c0.122,0.659,0.195,1.469,0.262,2.405
				c0.038,0.469,0.078,0.967,0.121,1.492c0.016,0.525,0,1.078,0.002,1.656c0.029,1.157-0.068,2.404-0.174,3.726
				c-0.03,0.664-0.141,1.336-0.241,2.025c-0.106,0.688-0.189,1.397-0.354,2.102c-0.164,0.706-0.332,1.423-0.5,2.148
				c-0.16,0.729-0.424,1.438-0.635,2.169l-0.338,1.096l-0.409,1.076c-0.287,0.715-0.534,1.449-0.857,2.152
				c-0.339,0.695-0.677,1.391-1.015,2.084c-0.336,0.692-0.756,1.338-1.126,2.002l-0.569,0.983c-0.211,0.312-0.421,0.624-0.629,0.933
				c-0.424,0.613-0.82,1.234-1.252,1.816c-0.9,1.133-1.741,2.256-2.686,3.191c-0.455,0.48-0.898,0.947-1.328,1.4
				c-0.459,0.42-0.902,0.827-1.328,1.218c-0.826,0.81-1.684,1.435-2.428,2.003c-0.371,0.283-0.719,0.55-1.041,0.796
				c-0.338,0.222-0.648,0.426-0.93,0.61c-1.129,0.723-1.773,1.137-1.773,1.137s0.604-0.471,1.658-1.295
				c0.266-0.203,0.559-0.428,0.878-0.672c0.3-0.268,0.626-0.557,0.973-0.865c0.692-0.619,1.489-1.296,2.276-2.123
				c0.402-0.403,0.82-0.823,1.254-1.258c0.402-0.463,0.817-0.943,1.244-1.436c0.885-0.959,1.648-2.106,2.529-3.218
				c0.414-0.575,0.793-1.191,1.199-1.798c0.199-0.305,0.4-0.612,0.603-0.921l0.542-0.972c0.353-0.655,0.754-1.291,1.072-1.975
				c0.32-0.681,0.643-1.365,0.963-2.049c0.326-0.682,0.578-1.396,0.869-2.091l0.417-1.048l0.345-1.065
				c0.217-0.712,0.486-1.403,0.653-2.114c0.177-0.709,0.351-1.409,0.521-2.098c0.178-0.688,0.252-1.384,0.396-2.052
				c0.128-0.671,0.268-1.328,0.324-1.977c0.162-1.293,0.315-2.519,0.336-3.659c0.027-0.569,0.055-1.115,0.08-1.635
				c-0.004-0.519-0.008-1.011-0.012-1.474c0.002-0.927-0.012-1.74-0.086-2.406C103.276,52.792,103.222,52.028,103.222,52.028z"/>
			<g>
				<g>
					<path fill="#0067B4" d="M69.854,90.923c-0.439,0.439-0.859,0.293-0.933-0.323l-0.382-3.2c-0.074-0.617-0.493-1.48-0.933-1.92
						l-4.493-4.492c-0.439-0.439-1.304-0.859-1.92-0.934l-3.199-0.382c-0.617-0.073-0.762-0.493-0.323-0.933l41.14-41.139
						c0.439-0.439,1.305-0.739,1.921-0.665l3.198,0.381c0.617,0.074,1.481,0.493,1.921,0.933l4.493,4.494
						c0.439,0.439,0.859,1.304,0.933,1.92l0.382,3.198c0.074,0.617-0.226,1.481-0.665,1.92L69.854,90.923z"/>
					<path fill="none" stroke="#FFFFFF" stroke-width="2.2594" stroke-miterlimit="10" d="M69.854,90.923
						c-0.439,0.439-0.859,0.293-0.933-0.323l-0.382-3.2c-0.074-0.617-0.493-1.48-0.933-1.92l-4.493-4.492
						c-0.439-0.439-1.304-0.859-1.92-0.934l-3.199-0.382c-0.617-0.073-0.762-0.493-0.323-0.933l41.14-41.139
						c0.439-0.439,1.305-0.739,1.921-0.665l3.198,0.381c0.617,0.074,1.481,0.493,1.921,0.933l4.493,4.494
						c0.439,0.439,0.859,1.304,0.933,1.92l0.382,3.198c0.074,0.617-0.226,1.481-0.665,1.92L69.854,90.923z"/>
				</g>
				<g>
					<path fill="#0067B4" d="M57.536,80.041c-0.621-0.02-1.328,0.433-1.57,1.004l-8.072,19.055c-0.242,0.572,0.03,0.848,0.605,0.611
						l19.245-7.895c0.575-0.235,1.014-0.936,0.975-1.556l-0.241-3.854c-0.039-0.62-0.431-1.486-0.87-1.926l-4.493-4.492
						c-0.439-0.439-1.307-0.814-1.928-0.834L57.536,80.041z"/>
					<path fill="none" stroke="#FFFFFF" stroke-width="2.2594" stroke-miterlimit="10" d="M57.536,80.041
						c-0.621-0.02-1.328,0.433-1.57,1.004l-8.072,19.055c-0.242,0.572,0.03,0.848,0.605,0.611l19.245-7.895
						c0.575-0.235,1.014-0.936,0.975-1.556l-0.241-3.854c-0.039-0.62-0.431-1.486-0.87-1.926l-4.493-4.492
						c-0.439-0.439-1.307-0.814-1.928-0.834L57.536,80.041z"/>
				</g>
				<path fill="#FFFFFF" d="M50.388,94.214c1.734-1.734,3.756,0.436,3.756,0.436s1.994,1.93,0.301,3.623l-6.992,2.866l2.742-6.47"/>
				
					<line fill="none" stroke="#FFFFFF" stroke-width="1.1297" stroke-linecap="round" stroke-miterlimit="10" x1="105.052" y1="37.45" x2="63.712" y2="78.791"/>
				
					<line fill="none" stroke="#FFFFFF" stroke-width="1.1297" stroke-linecap="round" stroke-miterlimit="10" x1="104.686" y1="48.667" x2="67.741" y2="85.615"/>
			</g>
		</g>
	</g>
</g>
</svg>
