<?xml version="1.0" encoding="utf-8"?>
<!-- Generator: Adobe Illustrator 16.0.4, SVG Export Plug-In . SVG Version: 6.00 Build 0)  -->
<!DOCTYPE svg PUBLIC "-//W3C//DTD SVG 1.1//EN" "http://www.w3.org/Graphics/SVG/1.1/DTD/svg11.dtd">
<svg version="1.1" xmlns="http://www.w3.org/2000/svg" xmlns:xlink="http://www.w3.org/1999/xlink" x="0px" y="0px" width="133.5px"
	 height="133.5px" viewBox="0 0 133.5 133.5" enable-background="new 0 0 133.5 133.5" xml:space="preserve">
<g id="Layer_1">
</g>
<g id="Isolation_Mode">
	<circle fill="#0067B4" cx="66.75" cy="66.75" r="66.75"/>
	<g>
		<g>
			<g>
				<path fill="#FFFFFF" d="M57.368,89.563h-2.911c-1.042,0-1.981-0.807-2.14-1.837l-0.597-3.883
					c-0.027-0.177-0.268-0.466-0.437-0.524l-1.055-0.439c-0.258-0.122-0.636-0.032-0.727,0.032l-3.158,2.317
					c-0.812,0.595-2.104,0.494-2.812-0.215l-2.059-2.059c-0.737-0.737-0.831-1.972-0.214-2.812l2.326-3.172
					c0.105-0.144,0.139-0.517,0.062-0.677l-0.438-1.053c-0.079-0.228-0.364-0.466-0.538-0.493l-3.869-0.594
					c-1.03-0.158-1.837-1.099-1.837-2.141l-0.001-2.91c0-1.043,0.807-1.982,1.837-2.141l3.884-0.598
					c0.176-0.027,0.465-0.268,0.523-0.436l0.44-1.057c0.104-0.213,0.071-0.582-0.033-0.725l-2.317-3.16
					c-0.616-0.84-0.521-2.074,0.215-2.811l2.059-2.059c0.709-0.709,2.002-0.809,2.812-0.215l3.173,2.325
					c0.057,0.043,0.217,0.104,0.424,0.104c0.123,0,0.213-0.022,0.254-0.042l1.054-0.438c0.226-0.078,0.464-0.363,0.491-0.537
					l0.596-3.871c0.158-1.029,1.098-1.836,2.14-1.836l2.91,0c1.042,0,1.982,0.807,2.141,1.836l0.597,3.883
					c0.027,0.177,0.268,0.466,0.437,0.524l1.055,0.439c0.257,0.121,0.637,0.033,0.726-0.032l3.158-2.317
					c0.809-0.595,2.102-0.495,2.812,0.215l2.059,2.058c0.737,0.737,0.831,1.973,0.215,2.812l-2.326,3.17
					c-0.104,0.145-0.139,0.518-0.062,0.678l0.439,1.054c0.079,0.228,0.363,0.466,0.539,0.493l3.867,0.594
					c1.03,0.158,1.837,1.099,1.837,2.141v2.91c0,1.043-0.807,1.982-1.837,2.141l-3.883,0.598c-0.177,0.027-0.466,0.268-0.523,0.436
					l-0.44,1.055c-0.104,0.215-0.071,0.584,0.033,0.727l2.317,3.158c0.616,0.84,0.521,2.075-0.215,2.812l-2.06,2.059
					c-0.396,0.396-0.956,0.622-1.54,0.622l0,0c-0.462,0-0.913-0.145-1.271-0.407l-3.171-2.326c-0.057-0.041-0.218-0.104-0.425-0.104
					c-0.122,0-0.213,0.023-0.253,0.043l-1.055,0.437c-0.227,0.079-0.465,0.364-0.491,0.538l-0.594,3.869
					C59.35,88.756,58.41,89.563,57.368,89.563z M49.918,80.81c0.414,0,0.809,0.087,1.14,0.25l0.94,0.393
					c0.805,0.277,1.56,1.184,1.698,2.087l0.597,3.884c0.009,0.055,0.107,0.14,0.163,0.14h2.911c0.056,0,0.155-0.085,0.164-0.14
					l0.594-3.87c0.139-0.905,0.897-1.811,1.765-2.105l0.939-0.39c0.668-0.33,1.961-0.254,2.678,0.271l3.172,2.327
					c0.157,0.02,0.203-0.005,0.215-0.017l2.06-2.059c0.039-0.04,0.049-0.17,0.017-0.215l-2.317-3.16
					c-0.542-0.738-0.645-1.914-0.24-2.736l0.393-0.941c0.277-0.804,1.184-1.559,2.086-1.697l3.885-0.598
					c0.055-0.009,0.14-0.107,0.14-0.164v-2.91c0-0.056-0.085-0.154-0.14-0.164l-3.869-0.594c-0.904-0.14-1.811-0.898-2.105-1.765
					l-0.391-0.938c-0.375-0.769-0.269-1.943,0.271-2.68l2.326-3.172c0.033-0.045,0.022-0.175-0.017-0.215l-2.059-2.059
					c-0.012-0.012-0.058-0.035-0.125-0.035l-3.248,2.336c-0.718,0.528-1.93,0.637-2.736,0.24l-0.941-0.393
					c-0.806-0.279-1.56-1.186-1.698-2.088l-0.597-3.883c-0.009-0.055-0.108-0.14-0.164-0.14l-2.91,0
					c-0.056,0-0.154,0.085-0.163,0.14l-0.596,3.871c-0.139,0.903-0.897,1.81-1.764,2.104l-0.94,0.391
					c-0.667,0.33-1.96,0.254-2.678-0.273l-3.172-2.325c-0.158-0.022-0.203,0.004-0.216,0.017l-2.059,2.059
					c-0.039,0.039-0.049,0.17-0.017,0.215l2.317,3.159c0.542,0.738,0.645,1.915,0.24,2.736l-0.393,0.942
					c-0.277,0.803-1.185,1.559-2.087,1.697l-3.884,0.598c-0.056,0.008-0.141,0.107-0.141,0.163l0.001,2.911
					c0,0.056,0.085,0.154,0.141,0.164l3.869,0.594c0.905,0.139,1.811,0.898,2.105,1.765l0.391,0.938
					c0.375,0.768,0.269,1.943-0.272,2.68l-2.326,3.171c-0.033,0.046-0.023,0.175,0.016,0.215l2.059,2.059
					c0.012,0.012,0.059,0.036,0.126,0.036l3.249-2.337C48.745,80.988,49.327,80.81,49.918,80.81z M55.939,78.753
					c-2.181,0-4.231-0.849-5.774-2.391c-3.184-3.185-3.183-8.365,0.002-11.549c1.542-1.543,3.592-2.392,5.773-2.392
					c2.181,0,4.231,0.849,5.773,2.392c3.184,3.184,3.185,8.363,0.001,11.547C60.171,77.904,58.121,78.753,55.939,78.753z
					 M55.94,64.422c-1.647,0-3.195,0.642-4.359,1.806c-2.404,2.404-2.405,6.316-0.002,8.721c1.165,1.164,2.713,1.805,4.36,1.805
					s3.196-0.641,4.361-1.807c2.403-2.403,2.403-6.314-0.001-8.719C59.135,65.064,57.586,64.422,55.94,64.422z"/>
			</g>
			<g>
				<path fill="#FFFFFF" d="M79.002,92.631c-0.236,0-0.466-0.04-0.682-0.12l-1.096-0.406c-0.92-0.341-1.487-1.361-1.291-2.322
					l0.367-1.789c-0.012-0.191-0.393-0.878-0.576-1.074c0.029,0.031-0.076-0.005-0.246-0.005c-0.104,0-0.205,0.013-0.295,0.039
					l-1.744,0.499c-0.926,0.265-2.016-0.238-2.415-1.109l-0.489-1.062c-0.41-0.893-0.09-2.015,0.729-2.556l1.523-1.006
					c0.129-0.143,0.347-0.893,0.355-1.16c-0.019-0.018-0.181-0.238-0.405-0.363l-1.59-0.884c-0.857-0.476-1.264-1.57-0.923-2.491
					l0.405-1.096c0.335-0.903,1.371-1.484,2.323-1.291l1.79,0.365c0.191-0.011,0.878-0.391,1.074-0.574
					c-0.003-0.023,0.036-0.293-0.034-0.541l-0.5-1.746c-0.27-0.944,0.218-2.005,1.11-2.414l1.061-0.488
					c0.874-0.4,2.031-0.064,2.556,0.73l1.005,1.521c0.145,0.13,0.894,0.348,1.161,0.356c0.019-0.019,0.239-0.181,0.364-0.407
					l0.883-1.588c0.463-0.832,1.59-1.256,2.492-0.923l1.096,0.405c0.92,0.341,1.487,1.361,1.291,2.323l-0.368,1.79
					c0.012,0.189,0.392,0.877,0.577,1.074c-0.031-0.031,0.076,0.004,0.244,0.004c0.104,0,0.206-0.014,0.296-0.039l1.745-0.498
					c0.926-0.264,2.015,0.238,2.415,1.108l0.488,1.062c0.411,0.892,0.091,2.014-0.729,2.555l-1.523,1.006
					c-0.129,0.144-0.346,0.893-0.355,1.16c0.02,0.019,0.182,0.24,0.408,0.365l1.587,0.881c0.857,0.478,1.263,1.572,0.923,2.492
					l-0.404,1.096c-0.289,0.783-1.086,1.33-1.937,1.33l0,0c-0.13,0-0.259-0.012-0.386-0.038l-1.793-0.366
					c-0.189,0.011-0.876,0.391-1.072,0.574c0.003,0.023-0.037,0.294,0.034,0.541l0.499,1.747c0.27,0.943-0.217,2.005-1.109,2.414
					l-1.062,0.487c-0.869,0.402-2.029,0.065-2.555-0.729l-1.005-1.522c-0.144-0.129-0.892-0.347-1.159-0.355
					c-0.02,0.019-0.24,0.182-0.365,0.406l-0.883,1.589C80.46,92.222,79.75,92.631,79.002,92.631z M75.479,85.165
					c0.632,0,1.184,0.2,1.516,0.55c0.199,0.209,1.234,1.586,1.021,2.63l-0.367,1.789c-0.023,0.116,0.072,0.29,0.184,0.331
					l1.17,0.417c0.111,0,0.236-0.063,0.281-0.144l0.882-1.588c0.351-0.629,1.095-1.307,1.903-1.307
					c0.326,0.008,2.025,0.252,2.612,1.142l1.005,1.522c0.046,0.069,0.16,0.122,0.268,0.122l1.158-0.506
					c0.107-0.05,0.189-0.229,0.157-0.343l-0.499-1.747c-0.203-0.708-0.15-1.727,0.442-2.29c0.317-0.303,1.72-1.211,2.629-1.021
					l1.792,0.366c0.182,0.012,0.295-0.086,0.33-0.183l0.406-1.097c0.041-0.111-0.028-0.298-0.133-0.355l-1.587-0.882
					c-0.665-0.369-1.327-1.155-1.306-1.941c0.007-0.289,0.25-1.986,1.14-2.574l1.522-1.006c0.1-0.064,0.154-0.255,0.104-0.363
					l-0.488-1.061c-0.041-0.09-0.174-0.164-0.29-0.164l-1.799,0.505c-0.83,0.237-1.82,0.054-2.291-0.443
					c-0.199-0.21-1.235-1.587-1.021-2.63l0.367-1.79c0.023-0.116-0.072-0.289-0.184-0.33l-1.096-0.405
					c-0.182-0.01-0.312,0.053-0.355,0.131l-0.881,1.588c-0.35,0.63-1.096,1.307-1.905,1.307c-0.325-0.008-2.024-0.25-2.611-1.141
					l-1.005-1.522c-0.047-0.069-0.162-0.122-0.268-0.122l-1.158,0.506c-0.108,0.05-0.191,0.229-0.158,0.344l0.5,1.746
					c0.202,0.709,0.15,1.729-0.443,2.291c-0.316,0.299-1.686,1.209-2.63,1.02l-1.79-0.365c-0.181-0.006-0.295,0.086-0.331,0.184
					l-0.405,1.096c-0.041,0.111,0.027,0.297,0.131,0.354l1.589,0.884c0.665,0.368,1.327,1.153,1.306,1.94
					c-0.008,0.289-0.25,1.987-1.141,2.574l-1.523,1.006c-0.1,0.064-0.153,0.255-0.104,0.363l0.489,1.062
					c0.04,0.088,0.176,0.165,0.29,0.165l1.798-0.506C74.95,85.201,75.211,85.165,75.479,85.165z M82.118,86.119
					c-0.65,0-1.293-0.115-1.907-0.343c-2.843-1.052-4.3-4.222-3.247-7.064c0.795-2.147,2.866-3.591,5.155-3.591
					c0.651,0,1.292,0.115,1.907,0.344c1.377,0.509,2.475,1.524,3.088,2.859c0.613,1.334,0.67,2.826,0.16,4.203
					C86.479,84.675,84.407,86.119,82.118,86.119z M82.119,76.871c-1.561,0-2.973,0.984-3.515,2.448
					c-0.717,1.938,0.276,4.099,2.214,4.815c0.419,0.155,0.856,0.234,1.3,0.234c1.561,0,2.974-0.984,3.516-2.449
					c0.348-0.938,0.309-1.956-0.109-2.865c-0.419-0.91-1.166-1.602-2.105-1.949C82.999,76.95,82.561,76.871,82.119,76.871z"/>
			</g>
			<g>
				<path fill="#FFFFFF" d="M95.047,74.903c-0.811,0-1.564-0.589-1.752-1.372l-0.154-0.641c-0.053-0.22-0.463-0.615-0.688-0.76
					c-0.117,0.031-0.361,0.145-0.595,0.348l-0.489,0.426c-0.627,0.545-1.699,0.553-2.332,0.018l-0.154-0.131
					c-0.658-0.555-0.82-1.566-0.371-2.301l0.345-0.561c0.119-0.195,0.11-0.764,0.054-1.022c-0.105-0.063-0.357-0.157-0.667-0.179
					l-0.65-0.045c-0.858-0.06-1.588-0.779-1.66-1.637l-0.017-0.201c-0.07-0.857,0.529-1.688,1.366-1.89l0.642-0.154
					c0.22-0.053,0.615-0.462,0.76-0.687c-0.032-0.12-0.145-0.361-0.347-0.594l-0.429-0.492c-0.564-0.649-0.572-1.674-0.016-2.332
					l0.129-0.152c0.536-0.632,1.598-0.804,2.303-0.371l0.561,0.344c0.072,0.043,0.26,0.094,0.56,0.094
					c0.204,0,0.372-0.023,0.465-0.041c0.062-0.107,0.155-0.357,0.177-0.666l0.045-0.649c0.06-0.86,0.779-1.589,1.638-1.661
					l0.338-0.021c0.812,0,1.565,0.59,1.752,1.372l0.153,0.64c0.053,0.221,0.463,0.617,0.688,0.761
					c0.117-0.032,0.36-0.144,0.595-0.347l0.49-0.428c0.627-0.544,1.698-0.553,2.332-0.018l0.154,0.132
					c0.656,0.556,0.819,1.566,0.369,2.301l-0.344,0.562c-0.119,0.195-0.111,0.763-0.055,1.021c0.107,0.062,0.357,0.156,0.668,0.178
					l0.649,0.045c0.858,0.061,1.589,0.779,1.661,1.638l0.016,0.2c0.072,0.858-0.527,1.688-1.365,1.891l-0.643,0.154
					c-0.219,0.053-0.613,0.461-0.758,0.686c0.031,0.121,0.145,0.363,0.347,0.596l0.427,0.492c0.565,0.649,0.572,1.674,0.017,2.33
					l-0.13,0.154c-0.33,0.39-0.848,0.623-1.385,0.623l0,0c-0.33,0-0.648-0.088-0.918-0.253l-0.561-0.344
					c-0.07-0.043-0.26-0.094-0.559-0.094c-0.204,0-0.373,0.023-0.465,0.042c-0.062,0.107-0.154,0.357-0.176,0.664l-0.046,0.65
					c-0.06,0.859-0.778,1.588-1.638,1.66L95.047,74.903z M92.502,70.872c0.128,0,0.248,0.021,0.356,0.064
					c0.362,0.143,1.311,0.88,1.499,1.663l0.153,0.641c0.053,0.22,0.304,0.413,0.536,0.413v0.625l0.033-0.626l0.201-0.018
					c0.242-0.02,0.478-0.258,0.494-0.5l0.045-0.65c0.036-0.512,0.26-1.448,0.871-1.713c0.268-0.116,0.715-0.157,1.018-0.157
					c0.503,0,0.91,0.093,1.213,0.278l0.559,0.344c0.074,0.045,0.166,0.068,0.266,0.068l0,0c0.172,0,0.336-0.069,0.43-0.181
					l0.131-0.153c0.156-0.186,0.154-0.521-0.006-0.703l-0.427-0.492c-0.336-0.386-0.841-1.203-0.6-1.818
					c0.143-0.363,0.88-1.311,1.662-1.499l0.644-0.154c0.234-0.057,0.432-0.329,0.41-0.57l-0.016-0.2
					c-0.021-0.242-0.26-0.479-0.502-0.494l-0.649-0.046c-0.511-0.036-1.446-0.259-1.712-0.868c-0.144-0.328-0.322-1.51,0.12-2.231
					l0.343-0.562c0.127-0.207,0.074-0.537-0.111-0.693l-0.154-0.132c-0.174-0.146-0.529-0.146-0.703,0.007l-0.49,0.427
					c-0.439,0.382-1.273,0.813-1.82,0.599c-0.363-0.142-1.311-0.88-1.498-1.664l-0.154-0.639c-0.053-0.221-0.303-0.414-0.536-0.414
					l-0.233,0.018c-0.242,0.021-0.479,0.26-0.495,0.502l-0.045,0.648c-0.036,0.512-0.259,1.447-0.868,1.713
					c-0.268,0.117-0.717,0.158-1.021,0.158c-0.503,0-0.911-0.094-1.212-0.278l-0.561-0.343c-0.199-0.123-0.546-0.065-0.695,0.111
					l-0.129,0.153c-0.158,0.186-0.155,0.521,0.004,0.703L89.28,62.7c0.336,0.386,0.842,1.204,0.6,1.819
					c-0.142,0.361-0.879,1.309-1.663,1.498l-0.642,0.154c-0.235,0.057-0.432,0.328-0.412,0.57l0.017,0.2
					c0.021,0.241,0.259,0.478,0.501,0.494l0.65,0.046c0.511,0.035,1.447,0.258,1.713,0.869c0.143,0.328,0.32,1.51-0.121,2.23
					l-0.344,0.561c-0.127,0.207-0.073,0.538,0.111,0.694l0.155,0.132c0.175,0.146,0.529,0.145,0.704-0.006l0.489-0.427
					C91.407,71.214,91.985,70.872,92.502,70.872z M94.575,70.074c-1.978,0-3.655-1.545-3.82-3.518
					c-0.085-1.021,0.232-2.015,0.895-2.797s1.588-1.26,2.609-1.345c2.1-0.167,3.969,1.425,4.143,3.505
					c0.176,2.107-1.396,3.965-3.505,4.142C94.788,70.07,94.68,70.074,94.575,70.074z M94.583,63.652
					c-0.073,0-0.146,0.002-0.22,0.009c-0.688,0.058-1.313,0.379-1.76,0.906s-0.66,1.196-0.603,1.886
					c0.117,1.4,1.358,2.484,2.791,2.362c1.422-0.118,2.481-1.372,2.363-2.792C97.043,64.693,95.915,63.652,94.583,63.652z"/>
			</g>
		</g>
		<g>
			<path fill="#FFFFFF" d="M106.899,31.93H26.601c-2.518,0-4.566,2.048-4.566,4.566v6.85v53.658c0,2.52,2.049,4.566,4.566,4.566
				h80.298c2.519,0,4.566-2.047,4.566-4.566V43.346v-6.85C111.465,33.978,109.417,31.93,106.899,31.93z M25.08,36.496
				c0-0.84,0.683-1.522,1.521-1.522h80.298c0.84,0,1.522,0.683,1.522,1.522v6.85c0,0.84-0.683,1.522-1.522,1.522H26.601
				c-0.839,0-1.521-0.683-1.521-1.522V36.496z M106.899,98.527H26.601c-0.839,0-1.521-0.684-1.521-1.523V47.646
				c0.477,0.168,0.987,0.266,1.521,0.266h80.298c0.534,0,1.046-0.098,1.522-0.266v49.357
				C108.421,97.843,107.739,98.527,106.899,98.527z"/>
			<circle fill="#FFFFFF" cx="30.112" cy="39.603" r="2.093"/>
			<circle fill="#FFFFFF" cx="37.469" cy="39.603" r="2.093"/>
			<circle fill="#FFFFFF" cx="44.827" cy="39.603" r="2.093"/>
		</g>
	</g>
</g>
</svg>
